<svg width="379" height="401" viewBox="0 0 379 401" fill="none" xmlns="http://www.w3.org/2000/svg">
<path d="M248.323 356.89C251.631 353.169 247.974 346.128 246.571 342.531C241.8 330.297 234.558 321.049 223.675 313.642C205.012
300.941 178.55 278.684 154.365 284.64C144.062 287.177 137.088 293.589 132.599 303.24C122.775 324.361 130.806 343.121 144.528
 359.773C160.876 379.614 185.272 401.027 213.273 399.403C229.115 398.485 240.733 385.638 237.13 369.327C233.083 351.012 215.247
 336.043 200.044 326.645C189.673 320.234 171.287 323.557 171.438 337.895C171.582 351.647 188.355 359.733 198.461 366.049M315.485
  391.489C319.749 386.751 309.685 379.331 307.118 376.451C294.923 362.765 283.887 348.023 274.894 332.015C257.726 301.456 249.847
  260.933 265.34 228.05C277.71 201.795 307.986 185.148 333.293 203.854C345.114 212.59 356.872 223.362 364.048 236.304C370.26 247.509
  376.988 261.876 377.389 274.916C377.919 292.132 362.601 311.68 343.752 307.593C326.604 303.874 310.898 283.603 309.606 266.323C309.11
   259.687 311.218 249.943 318.99 248.459C327.11 246.908 335.505 253.728 339.455 260.218C342.366 265 348.021 276.064 344.543 281.587C342.036
   285.57 336.998 286.073 332.784 286.675M220.848 251.059C223.009 251.059 224.334 250.241 225.054 248.9M225.054 248.9C226.106 246.942 225.871
   243.871 225.072 240.609M225.054 248.9C225.923 248.66 226.846 248.212 227.794 247.614M225.054 248.9C222.933 249.485 221.131 248.829 220.057
    246.084C219.851 245.559 219.417 242.829 219.387 240.358M225.072 240.609C224.997 240.303 224.917 239.997 224.833 239.689M225.072
     240.609C223.177 240.523 221.282 240.44 219.387 240.358M225.072 240.609C225.172 240.613 225.271 240.618 225.371 240.622M224.833
     239.689C224.801 239.57 224.767 239.452 224.734 239.333M224.833 239.689C224.753 239.561 224.671 239.435 224.588 239.311M224.833
     239.689C225.021 239.99 225.2 240.301 225.371 240.622M224.734 239.333C224.642 239.009 224.546 238.685 224.446 238.361M224.734 239.333C225.484
      239.449 226.289 239.577 227.077 239.708M224.734 239.333C224.685 239.325 224.637 239.318 224.588 239.311M224.446 238.361C224.304 237.901
      224.154 237.442 223.999 236.985M224.446 238.361C224.782 238.28 225.112 238.186 225.436 238.08M224.446 238.361C224.289 238.399 224.131
      238.435 223.972 238.468M223.999 236.985C223.964 236.884 223.929 236.783 223.894 236.682M223.999 236.985C223.437 236.955 222.851 236.897
      222.279 236.827M223.999 236.985C224.084 236.989 224.168 236.993 224.252 236.997M223.894 236.682C223.171 234.597 222.334 232.583 221.572
      230.879M223.894 236.682C224.014 236.786 224.133 236.891 224.252 236.997M223.894 236.682C222.335 235.323 220.693 234.054 218.988
      232.861M221.572 230.879C220.885 229.342 220.259 228.058 219.83 227.202C211.996 211.534 204.85 195.568 197.397 179.725M221.572
      230.879C224.973 232.643 227.813 234.632 227.293 236.191C227.06 236.888 225.772 237.055 224.252 236.997M221.572 230.879C220.619
      230.384 219.621 229.908 218.641 229.463M197.397 179.725C196.401 177.608 195.4 175.493 194.39 173.382C193.238 170.972 192.051 168.55 190.827
       166.123M197.397 179.725C197.944 182.842 198.585 185.994 199.322 189.147M197.397 179.725C196.631 175.367 196.048 171.075 195.634 166.937C195.603
       166.622 195.582 166.334 195.573 166.071M190.827 166.123C179.355 143.372 164.674 120.223 145.561 102.63M190.827 166.123C190.721 168.578
       191.489 172.302 191.564 172.591C192.337 175.585 193.206 178.59 194.168 181.583M190.827 166.123C190.885 164.796 191.199 163.839 192.016
       163.998C193.226 164.232 194.419 164.98 195.573 166.071M145.561 102.63C137.828 95.5118 129.37 89.3031 120.105 84.3983C103.259 75.4797
       84.5348 77.5914 68.7727 87.7903C56.7511 95.569 46.4689 109.267 48.5337 124.311C50.7603 140.533 66.5586 156.049 79.5706 164.506C86.5779
       169.061 93.6527 173.518 100.75 177.945M145.561 102.63C149.771 117.679 156.442 132.429 163.41 145.624C168.371 155.019 174.043 164.467
       180.105 173.61M145.561 102.63C143.308 94.5767 141.76 86.4378 141.249 78.4058C140.039 59.4081 142.816 34.5128 157.191 20.5154C165.211
       12.7067 177.016 4.91709 188.059 11.47C205.143 21.6081 212.836 43.7228 220.509 60.8804C220.646 61.1863 220.781 61.4925 220.916 61.799M100.75
       177.945C115.262 186.994 129.868 195.913 144.189 205.267C148.807 208.284 153.352 211.449 157.878 214.654M100.75 177.945C105.42 180.02 110.088
       182.017 114.791 183.671C130.735 189.28 145.651 196.879 160.628 204.426M100.75 177.945C82.6173 169.887 64.4673 160.657 44.2372 165.807C29.0774
       169.666 3.92788 177.304 1.27166 195.656C-0.790986 209.907 14.5868 220.993 25.8638 225.619C51.4162 236.102 81.2003 237.83 108.459 237.83C120.898
       237.83 133.326 237.935 145.75 238.136M157.878 214.654C158.935 215.402 159.99 216.153 161.046 216.904M157.878 214.654C157.247 213.875 156.64
       213.083 156.061 212.277C153.851 209.206 153.204 206.241 157.644 207.981C160.985 209.29 164.216 210.93 167.373 212.742M157.878 214.654C158.519
       215.446 159.186 216.225 159.875 216.992M161.046 216.904C161.535 217.252 162.024 217.601 162.513 217.949M161.046 216.904C163.997 216.708 166.635
       216.71 168.215 216.743C169.417 216.768 170.624 216.821 171.834 216.898M161.046 216.904C160.66 216.93 160.269 216.959 159.875 216.992M162.513
       217.949C163.21 218.445 163.906 218.942 164.603 219.438M162.513 217.949C165.975 217.86 169.439 217.821 172.863 217.766M162.513 217.949C161.987
       217.963 161.462 217.977 160.936 217.993M164.603 219.438C164.815 219.589 165.027 219.74 165.239 219.89M164.603 219.438C165.304 219.717 166.004
       219.996 166.704 220.277M164.603 219.438C163.382 218.952 162.16 218.47 160.936 217.993M165.239 219.89C171.297 224.2 177.376 228.476 183.612
       232.462M165.239 219.89C164.042 219.571 162.848 219.241 161.658 218.9M165.239 219.89C165.727 220.021 166.216 220.149 166.704 220.277M183.612
       232.462C184.501 233.031 185.394 233.593 186.29 234.149M183.612 232.462C181.245 232.131 178.884 231.758 176.523 231.372M183.612 232.462C184.02
       232.519 184.428 232.575 184.836 232.629C187.528 232.988 190.225 233.296 192.924 233.577M186.29 234.149C187.625 234.977 188.968 235.791 190.32 236.587C191.948 237.545 193.558 238.474 195.144 239.409M186.29 234.149C190.067 234.743 193.943 235.574 197.426 236.858M186.29
        234.149C183.815 233.76 181.382 233.472 179.13 233.226M195.144 239.409C196.172 240.015 197.19 240.624 198.195 241.245M195.144 239.409C193.855 239.364 192.566 239.32 191.277 239.276M195.144 239.409C197.171 239.48 199.198 239.553 201.225 239.628M198.195 241.245C199.669
         242.155 201.116 243.092 202.532 244.086M198.195 241.245C200.802 241.847 203.241 242.611 205.198 243.639M198.195 241.245C196.664 240.891 195.076 240.593 193.494 240.329M202.532 244.086C203.766 244.953 204.975 245.863 206.157 246.837M202.532 244.086C202.108 244.157
         201.681 244.228 201.254 244.3M202.532 244.086C203.429 243.935 204.319 243.785 205.198 243.639M206.157 246.837C206.463 247.09 206.767 247.346 207.069 247.608M206.157 246.837C206.037 246.843 205.912 246.847 205.784 246.849M206.157 246.837C207.944 246.754 208.784
          246.329 207.563 245.236C206.897 244.641 206.099 244.112 205.198 243.639M207.069 247.608C207.23 247.747 207.391 247.888 207.551 248.03M207.069 247.608C207.259 247.721 207.45 247.835 207.64 247.95M207.069 247.608C206.642 247.353 206.213 247.1 205.784 246.849M207.551
          248.03C207.916 248.354 208.278 248.685 208.637 249.024C209.197 249.553 209.727 249.983 210.228 250.322M207.551 248.03C206.883 248.617 205.88 249.009 204.797 249.273M207.551 248.03C207.581 248.004 207.611 247.977 207.64 247.95M210.228 250.322C211.292 251.042 212.223
          251.355 213.026 251.349M210.228 250.322C208.453 250.16 206.578 249.746 204.797 249.273M210.228 250.322C210.681 250.363 211.127 250.388 211.563 250.393M213.026 251.349C213.694 251.343 214.273 251.118 214.767 250.724M213.026 251.349C213.165 251.44 213.304 251.532 213.442
          251.625C214.627 252.415 215.723 253.24 213.612 252.642C210.575 251.782 207.628 250.63 204.761 249.282M213.026 251.349C212.541 251.027 212.053 250.709 211.563 250.393M214.767 250.724C216.592 249.267 217.251 245.499 216.885 241.98M214.767 250.724C216.736 252.725 217.839
          254.381 214.969 253.49C210.972 252.25 207.002 250.926 203.032 249.598M214.767 250.724C214.575 250.53 214.376 250.332 214.171 250.133M216.885 241.98C216.824 241.389 216.733 240.804 216.615 240.239M216.885 241.98C216.275 242.037 215.653 242.103 215.02 242.176M216.885
          241.98C217.192 241.951 217.495 241.925 217.795 241.901M216.615 240.239C216.607 240.202 216.599 240.164 216.59 240.127M216.615 240.239C215.619 240.197 214.623 240.156 213.628 240.115M216.615 240.239C216.643 240.241 216.671 240.242 216.7 240.243M216.59 240.127C216.499
          239.707 216.392 239.297 216.269 238.905C216.249 238.843 216.232 238.782 216.216 238.721M216.59 240.127C216.627 240.166 216.664 240.205 216.7 240.243M216.59 240.127C216.191 239.701 215.746 239.226 215.267 238.713M216.216 238.721C216.192 238.634 216.172 238.549 216.155
          238.464M216.216 238.721C216.338 238.722 216.46 238.722 216.582 238.723M216.216 238.721C215.902 238.719 215.586 238.717 215.267 238.713M216.155 238.464C216.122 238.303 216.101 238.147 216.089 237.994M216.155 238.464C216.249 238.479 216.344 238.493 216.438 238.507M216.155
          238.464C215.713 238.396 215.267 238.318 214.819 238.232M216.089 237.994C216.029 237.243 216.207 236.587 216.494 235.969M216.089 237.994C215.605 237.296 215.094 236.611 214.392 235.715M216.089 237.994C216.206 238.163 216.321 238.333 216.438 238.507M216.494 235.969C217.018
          234.842 217.905 233.844 218.379 232.629M216.494 235.969C215.794 235.881 215.093 235.797 214.392 235.715M216.494 235.969C217.211 236.058 217.927 236.151 218.643 236.247C218.857 236.276 219.374 236.375 220.055 236.492M218.379 232.629C218.398 232.579 218.417 232.529 218.435
          232.478M218.379 232.629C218.756 233.019 218.942 233.063 218.988 232.861M218.379 232.629C218.261 232.508 218.125 232.353 217.969 232.161M218.435 232.478C218.558 232.134 218.645 231.772 218.681 231.384M218.435 232.478C218.62 232.605 218.804 232.732 218.988 232.861M218.435
          232.478C218.28 232.372 218.125 232.266 217.969 232.161M218.681 231.384C218.693 231.256 218.7 231.124 218.7 230.99C218.7 230.477 218.68 229.968 218.641 229.463M218.681 231.384C218.47 230.734 218.169 229.939 217.834 229.102M218.681 231.384C218.913 232.096 219.039 232.634
          218.988 232.861M218.641 229.463C218.579 228.67 218.471 227.886 218.321 227.11M218.641 229.463C218.37 229.34 218.101 229.22 217.834 229.102M218.321 227.11C217.94 225.143 217.286 223.229 216.426 221.363M218.321 227.11C219.553 228.535 220.126 228.824 219.378 226.976C218.604
          225.064 217.593 223.192 216.426 221.363M218.321 227.11C217.525 226.189 216.455 224.796 215.288 223.197M216.426 221.363C215.026 218.323 213.08 215.411 210.883 212.611M216.426 221.363C215.131 219.333 213.645 217.355 212.078 215.43M210.883 212.611C208.799 209.955 206.488
          207.399 204.201 204.928M210.883 212.611C207.45 204.59 203.741 196.633 199.322 189.147M210.883 212.611C211.285 213.55 211.683 214.49 212.078 215.43M204.201 204.928C204.038 204.752 203.875 204.577 203.712 204.401M204.201 204.928C203.935 204.481 203.686 204.056 203.456
          203.656M204.201 204.928C204.967 206.22 205.861 207.698 206.771 209.278M203.712 204.401C203.588 204.267 203.464 204.134 203.34 204.001M203.712 204.401C203.83 204.741 203.949 205.079 204.069 205.418M203.712 204.401C203.626 204.153 203.541 203.905 203.456 203.656M203.34
          204.001C200.481 200.927 197.71 197.986 195.521 195.148C192.135 190.758 188.784 186.205 185.514 181.541M203.34 204.001C203.58 204.475 203.823 204.947 204.069 205.418M203.34 204.001C202.493 202.332 201.677 200.641 200.892 198.932M185.514 181.541C183.683 178.929 181.877
          176.283 180.105 173.61M185.514 181.541C186.468 183.981 187.623 186.397 188.802 188.704M185.514 181.541C184.756 179.604 184.125 177.653 183.71 175.728M180.105 173.61C178.07 173.291 177.989 176.407 178.444 179.697M180.105 173.61C180.508 173.673 180.989 173.871 181.557
          174.23C182.295 174.696 183.012 175.197 183.71 175.728M220.916 61.799C230.242 83.0787 233.708 105.867 237.179 128.691L237.356 129.851C239.296 142.604 242.276 155.112 243.926 167.698M220.916 61.799C219.518 66.7407 218.318 71.7874 217.23 76.8794C213.831 92.7867
          211.898 108.423 213.555 124.707C215.139 140.267 219.388 155.523 224.216 170.445M220.916 61.799C226.814 40.9368 236.215 21.9461 255.447 9.32175C270.33 -0.448291 292.556 -3.13244 305.648 10.9047C311.223 16.8818 313.198 24.5099 314.468 32.3874C316.888 47.407
          317.035 63.1174 316.277 78.2927C314.206 119.702 292.834 157.674 270.711 191.473C268.747 194.472 266.842 197.505 264.925 200.522M243.926 167.698C244.036 168.535 244.14 169.372 244.237 170.21M243.926 167.698C243.61 168.729 243.36 169.584 243.179 170.103C242.636
          171.66 242.132 173.234 241.665 174.824M243.926 167.698C245.079 163.939 247.108 157.846 249.85 157.214C253.722 156.32 252.843 171.817 252.733 173.156C252.606 174.702 252.427 176.298 252.2 177.93M244.237 170.21C245.021 176.96 245.378 183.74 244.944 190.597M244.237
          170.21C243.279 171.628 242.428 173.189 241.665 174.824M244.237 170.21C244.498 169.824 244.767 169.449 245.044 169.086C248.029 165.175 250.298 175.715 251.022 179.793M244.944 190.597C244.737 193.866 244.35 197.152 243.744 200.462C243.106 203.946 242.311 207.478
          241.563 211.034M244.944 190.597C243.041 194.458 241.374 198.477 240.013 202.78C239.711 203.735 237.389 217.555 238.656 215.726C239.672 214.258 240.642 212.687 241.563 211.034M244.944 190.597C246.772 186.887 248.819 183.323 251.022 179.793M241.563 211.034C240.894
          214.21 240.264 217.405 239.817 220.602M241.563 211.034C243.632 207.318 245.455 203.189 247.002 198.894M239.817 220.602C239.616 222.044 239.452 223.487 239.339 224.928M239.817 220.602C241.049 218.87 242.327 217.18 243.639 215.519M239.817 220.602C239.607 220.897
          239.398 221.194 239.191 221.492M239.339 224.928C239.227 226.348 239.165 227.766 239.165 229.181C239.165 230.851 239.272 227.359 239.339 224.928ZM239.339 224.928C239.37 223.776 239.393 222.862 239.391 222.849C239.327 222.396 239.26 221.944 239.191 221.492M239.191
          221.492C238.698 218.301 238.06 215.133 237.316 211.986M239.191 221.492C238.8 222.053 238.414 222.618 238.034 223.188C236.845 224.973 235.348 227.729 233.634 230.378M237.316 211.986C237.103 211.087 236.882 210.189 236.653 209.294M237.316 211.986C237.723 210.125
          238.135 208.101 238.373 206.963C239.92 199.585 241.989 182.12 241.553 175.208M237.316 211.986C236.685 214.866 236.065 217.355 236.112 215.556C236.119 215.292 236.126 215.027 236.134 214.763M236.653 209.294C236.571 208.972 236.487 208.65 236.403 208.328M236.653
          209.294C236.928 205.796 237.095 202.287 237.151 198.78M236.653 209.294C236.509 211.121 236.336 212.944 236.134 214.763M236.403 208.328C235.895 206.393 235.353 204.464 234.785 202.543M236.403 208.328C236.284 210.483 236.196 212.63 236.134 214.763M236.403 208.328C236.578
          205.155 236.821 201.966 237.151 198.78M234.785 202.543C234.68 202.188 234.574 201.834 234.467 201.48M234.785 202.543C234.755 201.661 234.723 200.777 234.689 199.892M234.785 202.543C234.815 203.453 234.843 204.361 234.868 205.267C234.985 209.384 236.366 218.708 234.529
          222.906C232.804 226.849 233.597 214.318 233.738 210.016C233.766 209.155 233.792 208.276 233.818 207.382M234.467 201.48C234.336 201.043 234.203 200.606 234.069 200.169M234.467 201.48C234.207 203.441 233.993 205.41 233.818 207.382M234.467 201.48C234.538 200.95 234.611
          200.421 234.689 199.892M234.069 200.169C232.148 193.912 229.992 187.724 227.915 181.58C227.7 180.945 227.486 180.309 227.271 179.673M234.069 200.169C233.955 202.636 233.886 205.058 233.818 207.382M234.069 200.169C234.157 198.276 234.271 196.356 234.432 194.435M227.271
          179.673C226.24 176.611 225.216 173.536 224.216 170.445M227.271 179.673C226.966 185.008 226.928 191.615 227.05 198.436M227.271 179.673C227.399 177.44 227.573 175.431 227.802 173.721C228.546 168.156 229.464 165.557 230.422 164.878M224.216 170.445C224.51 173.633 224.901
          176.608 225.088 178.809C225.641 185.304 226.247 191.881 227.05 198.436M224.216 170.445C223.704 164.898 223.486 158.709 225.145 154.839C226.311 152.118 228.998 159.559 229.78 162.415C230.004 163.232 230.218 164.053 230.422 164.878M264.925 200.522C258.86 210.071 252.688
          219.47 244.253 227.202C239.95 231.146 237.111 235.892 233.625 240.374C232.881 241.33 232.005 245.78 230.911 244.275C230.013 243.04 229.054 241.865 228.042 240.744M264.925 200.522C266.178 198.145 267.339 195.715 268.393 193.225C268.498 192.978 272.02 183.696 272.617
          179.285M264.925 200.522C258.699 212.339 250.226 222.867 241.652 233.082C240.559 234.384 233.686 243.897 227.794 247.614M228.042 240.744C227.725 240.393 227.404 240.048 227.077 239.708M228.042 240.744C227.152 240.703 226.262 240.662 225.371 240.622M228.042 240.744C228.64
          240.771 229.239 240.799 229.837 240.827C234.208 241.03 230.819 240.332 227.077 239.708M227.077 239.708C226.543 239.152 225.996 238.61 225.436 238.08M225.436 238.08C225.047 237.713 224.652 237.352 224.252 236.997M225.436 238.08C226.102 237.863 226.741 237.593 227.349 237.265C227.969 236.931 228.578 236.484 229.174 235.951M217.969 232.161C215.683 230.623 213.295 229.212 210.847 227.896M217.969 232.161C217.817 231.976 217.647 231.756 217.456 231.499C216.587 230.328 215.746 229.12 214.933 227.879M210.847 227.896C210.643 227.787 210.439 227.678 210.234 227.57M210.847 227.896C211.228 227.675 211.541 227.378 211.77 226.992M210.847 227.896C210.639 228.016 210.412 228.114 210.167 228.192M210.234 227.57C210.055 227.475 209.875 227.38 209.695 227.286M210.234 227.57C210.114 227.587 209.991 227.602 209.866 227.614M210.234 227.57C210.889 227.474 211.455 227.293 211.77 226.992M209.695 227.286C209.591 227.232 209.487 227.178 209.383 227.124M209.695 227.286C209.752 227.395 209.809 227.505 209.866 227.614M209.695 227.286C209.383 226.69 209.069 226.095 208.753
          225.502M209.383 227.124C208.155 226.488 206.913 225.873 205.665 225.276M209.383 227.124C209.076 226.544 208.766 225.966 208.453 225.391M209.383 227.124C209.473 227.293 209.562 227.463 209.652 227.632M205.665 225.276C204.383 224.663 203.093 224.069 201.802 223.49M205.665 225.276C205.287 224.847 204.906 224.419 204.525 223.992M205.665 225.276C206.353 226.056 207.036 226.84 207.714 227.628M201.802 223.49C201.615 223.406 201.429 223.322 201.242 223.239M201.802 223.49C201.665 223.309 201.528 223.128 201.39 222.948M201.802 223.49C202.512 224.427 203.204 225.376 203.873 226.338M201.242 223.239C201.227 223.233 201.213 223.226 201.199 223.22M201.242 223.239C201.802 223.925 202.364 224.605 202.927 225.28C203.026 225.399 203.362 225.774 203.873 226.338M201.242 223.239C201.117 223.087 200.992 222.934 200.868 222.781M201.199 223.22C200.773 223.031 200.348 222.843 199.923 222.656M201.199 223.22C201.072 223.07 200.945 222.918 200.815 222.764M201.199 223.22C202.428 224.684 203.514 225.997 204.374 227.067M199.923 222.656C199.81 222.607 199.698 222.558 199.586 222.509M199.923 222.656C200.293 223.14 200.656 223.609 201.009 224.062M199.923 222.656C199.865 222.581 199.806 222.504 199.748
          222.428M199.586 222.509C199.244 222.36 198.903 222.211 198.562 222.064M199.586 222.509C199.529 222.447 199.472 222.386 199.415 222.325M199.586 222.509C200.063 223.024 200.538 223.542 201.009 224.062M198.562 222.064C198.309 221.954 198.056 221.845 197.803 221.736M198.562 222.064C198.847 222.15 199.131 222.237 199.415 222.325M198.562 222.064C198.34 221.996 198.117 221.929 197.894 221.863M197.803 221.736C195.74 220.849 193.689 219.988 191.673 219.135M197.803 221.736C196.843 220.405 196.18 219.51 196.086 219.4C195.822 219.091 195.557 218.779 195.292 218.467M197.803 221.736C197.833 221.778 197.864 221.82 197.894 221.863M191.673 219.135C191.258 218.959 190.845 218.784 190.433 218.609C189.8 218.34 189.169 218.069 188.539 217.795M191.673 219.135C192.088 219.582 192.505 220.027 192.922 220.471M191.673 219.135C191.302 218.735 190.931 218.334 190.562 217.932M188.539 217.795C187.522 217.354 186.507 216.906 185.496 216.454M188.539 217.795C189.211 217.833 189.886 217.878 190.562 217.932M188.539 217.795C187.816 217.755 187.097 217.723 186.382 217.699M185.496 216.454C183.878 215.731 182.268 214.994 180.663 214.247M185.496 216.454C185.788 216.872 186.083 217.287 186.382 217.699M185.496 216.454C182.482 212.136 179.871 207.503 177.57 202.527M180.663 214.247C178.18 213.09 175.711 211.909 173.251 210.71M180.663 214.247C177.98 212.456 175.154 210.87 172.949 210.454M180.663 214.247C182.373 215.388 184.025 216.612 185.421 217.67M173.251 210.71C173.055 210.614 172.858 210.518 172.662 210.423M173.251 210.71C176.224 213.215 179.358 215.533 182.619 217.629M173.251 210.71C173.15 210.625 173.05 210.54 172.949 210.454M172.662 210.423C172.646 210.415 172.631 210.407 172.615 210.4M172.662 210.423C174.881 213.118 177.381 215.63 179.474 217.645M172.662 210.423C172.657 210.416 172.652 210.41 172.647 210.404M172.615 210.4C171.151 209.684 169.69 208.963 168.231 208.238M172.615 210.4C171.867 210.297 171.2 210.344 170.646 210.581C170.452 210.665 173.496 213.714 177.342 217.42M172.615 210.4C172.626 210.401 172.636 210.403 172.647 210.404M168.231 208.238C165.692 206.975 163.159 205.701 160.628 204.426M168.231 208.238C169.914 211.365 171.889 214.216 174.086 216.864M168.231 208.238C167.534 206.943 166.887 205.6 166.296 204.205M160.628 204.426C162.536 207.38 164.822 210.146 167.373 212.742M160.628 204.426C158.22 200.698 156.414 196.673 155.439 192.321C152.855 180.794 160.668 184.073 168.422 189.58M145.75 238.136C148.188 238.175 150.625 238.218 153.063 238.264M145.75 238.136C144.114 237.371 142.535 236.519 141.023 235.569C127.798 227.259 137.549 219.85 148.824 218.722C149.592 218.645 150.363 218.576 151.137 218.512M145.75 238.136C149.539 239.907 153.627 241.211 157.869 242.189M153.063 238.264C154.012 238.282 154.961 238.301 155.911 238.32M153.063 238.264C152.004 237.105 151.7 236.305 151.887 235.768M153.063 238.264C153.152 238.362 153.247 238.462 153.347 238.565C154.728 239.984 156.242 241.183 157.869 242.189M155.911 238.32C156.86 238.339 157.809 238.359 158.758 238.379M155.911 238.32C159.037 240.217 162.246 241.973 165.518 243.611M155.911 238.32C154.553 237.497 153.211 236.647 151.887 235.768M158.758 238.379C161.645 238.441 164.531 238.508 167.417 238.579M158.758 238.379C157.216 237.473 155.291 236.269 153.367 234.89M158.758 238.379C159.777 238.979 160.63 239.448 161.205 239.753C164.363 241.424 167.609 242.954 170.927 244.289M167.417 238.579C168.688 238.61 169.959 238.643 171.229 238.676M167.417 238.579C163.185 237.314 158.903 236.023 154.918 234.791M167.417 238.579C176.193 241.201 184.758 243.71 190.037 245.349C190.39 245.459 190.742 245.569 191.095 245.68M171.229 238.676C171.57 238.685 171.911 238.694 172.252 238.703M171.229 238.676C172.327 239.008 173.425 239.342 174.523 239.675M171.229 238.676C167.638 237.59 164.043 236.522 160.414 235.569C159.495 235.328 156.986 234.819 154.918 234.791M172.252 238.703C172.536 238.711 172.819 238.718 173.102 238.726M172.252 238.703C170.673 237.992 169.119 237.215 167.607 236.38M172.252 238.703C173.004 239.042 173.762 239.366 174.523 239.675M173.102 238.726C177.09 238.833 181.077 238.949 185.064 239.074M173.102 238.726C171.262 237.968 169.43 237.186 167.607 236.38M173.102 238.726C174.894 239.464 176.695 240.178 178.504 240.87M185.064 239.074C185.978 239.103 186.892 239.132 187.806 239.162M185.064 239.074C186.107 239.236 187.227 239.394 188.394 239.56M185.064 239.074C183.896 238.894 182.826 238.71 181.896 238.509C176.013
          237.236 170.159 235.87 164.323 234.423M187.806 239.162C188.963 239.199 190.12 239.237 191.277 239.276M187.806 239.162C185.933 237.892 184.008 236.594 182.065 235.261M187.806 239.162C188.003 239.295 188.199 239.428 188.394 239.56M191.277 239.276C192.018 239.623 192.757 239.974 193.494 240.329M191.277 239.276C188.244 237.86 185.171 236.521 182.065 235.261M201.225 239.628C201.87 239.652 202.515 239.676 203.159 239.701M201.225 239.628C202.929 240.882 204.627 242.152 206.306 243.455M201.225 239.628C199.96 238.698 198.692 237.776 197.426 236.858M203.159 239.701C203.842 239.726 204.524 239.752 205.207 239.779M203.159 239.701C204.691 240.729 206.022 241.926 207.075 243.328M203.159 239.701C201.46 238.559 199.514 237.627 197.426 236.858M205.207 239.779C207.925 239.883 210.644 239.992 213.362 240.104M205.207 239.779C206.474 240.845 207.729 241.925 208.968 243.024M205.207 239.779C202.981 237.905 200.721 236.071 198.459 234.239M213.362 240.104C213.451 240.107 213.539 240.111 213.628 240.115M213.362 240.104C213.031 239.609 212.694 239.104 212.378
          238.631M213.362 240.104C213.887 240.887 214.399 241.643 214.79 242.203M213.628 240.115C214.146 240.791 214.614 241.478 215.02 242.176M213.628 240.115C213.246 239.615 212.836 239.121 212.405 238.632M216.7 240.243C216.995 240.255 217.29 240.268 217.585 240.281M216.7 240.243C217.869 241.486 218.624 242.269 218.643 242.24C218.924 241.819 218.234 241.311 217.965 240.883C217.832 240.672 217.705 240.471 217.585 240.281M217.585 240.281C218.186 240.306 218.786 240.332 219.387 240.358M217.585 240.281C217.21 239.688 216.89 239.188 216.582 238.723M219.387 240.358C219.381 239.815 219.394 239.285 219.433 238.794M225.371 240.622C226.523 242.776 227.312 245.331 227.794 247.614M224.588 239.311C223.002 239.067 221.682 238.883 221.3 238.848C221.138 238.833 220.968 238.82 220.791 238.808M224.588 239.311C224.392 239.017 224.186 238.735 223.972 238.468M220.791 238.808C220.374 238.781 219.92 238.764 219.437 238.752M220.791 238.808C221.894 238.786 222.958 238.678 223.972 238.468M220.791 238.808C220.345 238.817 219.892 238.812 219.433 238.794M219.437 238.752C219.121 238.744 218.792 238.739 218.454 238.735M219.437 238.752C219.435 238.766 219.434 238.78 219.433 238.794M219.437 238.752C219.518 237.771 219.707 236.947 220.055 236.492M218.454 238.735C217.856 238.729 217.228 238.726 216.582 238.723M218.454 238.735C218.783 238.761 219.11 238.781 219.433 238.794M218.454 238.735C217.791 238.683 217.118 238.606 216.438 238.507M216.582 238.723C216.534 238.65 216.486 238.578 216.438 238.507M215.267 238.713C214.317 238.702 213.349 238.681 212.405 238.632M215.267 238.713C215.121 238.556 214.972 238.396 214.819 238.232M212.405 238.632C212.396 238.632 212.387 238.631 212.378 238.631M212.405 238.632C212.371 238.594 212.337 238.556 212.302 238.517M212.378 238.631C211.728 238.597 211.088 238.551 210.473 238.485M212.378 238.631C212.353 238.593 212.327 238.555 212.302 238.517M210.473 238.485C208.979 238.327 207.626 238.06 206.602 237.604C204.516 236.677 202.437 235.883 200.375 235.042M210.473 238.485C210.4 238.117 210.095 237.602 209.617 236.986M210.473 238.485C210.696 239.606 208.773 239.361 203.04 236.417C202.168 235.969 201.278 235.511 200.375 235.042M200.375 235.042C199.735 234.781 199.096 234.515 198.459 234.239M200.375 235.042C199.807 234.747 199.233 234.447 198.654 234.143M198.459 234.239C198.347 234.191 198.235 234.142 198.122 234.092M198.459 234.239C198.406 234.196 198.352 234.153 198.299 234.109M198.122 234.092C195.984 233.154 193.869 232.093 191.79 230.707C191.568 230.559 191.159 230.227 190.603 229.749M198.122 234.092C196.389 233.927 194.656 233.758 192.924 233.577M198.122 234.092C198.181 234.098 198.24 234.104 198.299 234.109M190.603 229.749C190.508 229.667 190.408 229.581 190.303 229.49M190.603 229.749C193.022 231.132 195.423 232.436 197.755 233.669M190.603 229.749C190.368 229.615 190.133 229.48 189.898 229.345M190.303 229.49C189.002 228.357 187.058 226.583 184.891 224.567M190.303 229.49C190.384 229.519 190.465 229.548 190.546 229.577C191.788 230.019 193.204 230.589 194.748 231.229M190.303 229.49C190.168 229.442 190.033 229.393 189.898 229.345M184.891 224.567C184.173 223.899 183.431 223.205 182.68 222.499M184.891 224.567C183.513 224.279 182.141 223.978 180.775 223.669M184.891 224.567C185.378 224.669 185.865 224.769 186.353 224.868M182.68 222.499C180.978 220.898 179.228 219.234 177.608 217.675M182.68 222.499C182.89 222.635 183.1 222.77 183.31 222.906C184.324 223.559 185.338 224.214 186.353 224.868M182.68 222.499C180.274 220.938 177.855 219.318 175.407 217.721M177.608 217.675C177.519 217.59 177.431 217.504 177.342 217.42M177.608 217.675C178.091 217.666 178.583 217.657 179.083 217.65M177.608 217.675C177.125 217.685 176.651 217.694 176.187 217.704C175.927 217.71 175.667 217.715 175.407 217.721M177.342 217.42C177.922 217.491 178.502 217.568 179.083 217.65M177.342 217.42C176.381 217.3 175.42 217.196 174.461 217.106M172.647 210.404C172.746 210.418 172.847 210.435 172.949 210.454M172.647 210.404C172.459 210.175 172.273 209.945 172.089 209.714M172.949 210.454C172.661 210.209 172.374 209.963 172.089 209.714M185.421 217.67C186.139 218.214 186.79 218.714 187.346 219.136M185.421 217.67C185.74 217.678 186.061 217.688 186.382 217.699M185.421 217.67C184.474 217.646 183.539 217.633 182.619 217.629M187.346 219.136C187.432 219.201 187.515 219.264 187.596 219.325M187.346 219.136C187.388 219.145 187.43 219.154 187.472 219.164M187.346 219.136C186.202 218.889 185.057 218.657 183.91 218.443M187.596 219.325C188.001 219.631 188.348 219.887 188.624 220.079C190.356 221.281 192.103 222.486 193.84 223.711M187.596 219.325C188.171 220.076 188.759 220.816 189.362 221.547M187.596 219.325C187.555 219.271 187.513 219.217 187.472 219.164M193.84 223.711C195.292 224.735 196.737 225.773 198.163 226.834M193.84 223.711C194.305 223.919 194.771 224.121 195.238 224.319C195.676 224.504 196.546 224.908 197.67 225.393M193.84 223.711C192.33 223.038 190.836 222.315 189.362 221.547M198.163 226.834C200.362 228.472 202.513 230.165 204.566 231.951C204.752 232.112 204.935 232.273 205.117 232.434M198.163 226.834C196.603 226.639 195.046 226.415 193.491 226.167M198.163 226.834C198.548 226.883 198.933 226.929 199.318 226.974M205.117 232.434C206.116 233.32 207.053 234.2 207.857 235.017M205.117 232.434C204.883 232.059 204.635 231.669 204.377 231.269M205.117 232.434C205.698 233.366 206.194 234.206 206.553 234.889M207.857 235.017C208.531 235.703 209.111 236.343 209.554 236.905M207.857 235.017C207.422 234.974 206.988 234.931 206.553 234.889M207.857 235.017C208.2 235.051 208.543 235.085 208.887 235.12M209.554 236.905C209.575 236.932 209.597 236.959 209.617 236.986M209.554
          236.905C209.571 236.91 209.588 236.915 209.605 236.92M209.554 236.905C208.736 236.656 207.918 236.39 207.104 236.113M209.617 236.986C209.614 236.964 209.609 236.942 209.605 236.92M209.617 236.986C209.97 238.988 207.947 238.1 205.679 236.583M198.654 234.143C198.356 233.986 198.056 233.828 197.755 233.669M198.654 234.143C198.535 234.132 198.417 234.12 198.299 234.109M198.654 234.143C199.537 234.227 200.421 234.31 201.304 234.392M197.755 233.669C197.936 233.816 198.118 233.963 198.299 234.109M197.755 233.669C196.752 232.857 195.749 232.045 194.748 231.229M189.898 229.345C186.844 227.582 183.768 225.694 180.775 223.669M189.898 229.345C188.306 228.772 186.718 228.184 185.132 227.584M180.775 223.669C180.561 223.524 180.347 223.378 180.134 223.231M180.775 223.669C180.7 223.651 180.625 223.634 180.55 223.617M180.134 223.231C177.627 221.511 175.183 219.692 172.863 217.766M180.134 223.231C180.272 223.36 180.41 223.489 180.55 223.617M180.134 223.231C178.264 221.485 176.484 219.662 174.82 217.732M172.863 217.766C172.517 217.479 172.174 217.19 171.834 216.898M172.863 217.766C173.517 217.755 174.169 217.744 174.82 217.732M171.834 216.898C170.279 215.564 168.785 214.179 167.373 212.742M171.834 216.898C172.646 216.951 173.459 217.014 174.273 217.089M167.373 212.742C169.645 214.046 171.879 215.44 174.086 216.864M168.422 189.58C170.465 191.031 172.504 192.638 174.348 194.169M168.422 189.58C169.009 190.476 169.597 191.372 170.194 192.264C170.944 193.385 171.706 194.498 172.48 195.602M168.422 189.58C167.014 187.435 165.609 185.292 164.088 183.219C163.49 182.403 161.727 180.385 162.732 180.505C165.234 180.806 169.718 186.73 170.816 187.911C171.569 188.721 172.321 189.532 173.071 190.345M174.348 194.169C177.53 196.81 180.129 199.227 181.161 200.236C181.51 200.576 183.402 202.687 186.007 205.642M174.348 194.169C174.779 195.408 175.199 196.575 175.57 197.583M174.348 194.169C173.92 192.936 173.481 191.633 173.071 190.345M186.007 205.642C188.419 208.378 191.442 211.835 194.417 215.279M186.007 205.642C185.599 205.289 185.19 204.938 184.78 204.589C182.56 202.701 178.959 199.703 175.57 197.583M186.007 205.642C187.232 206.704 188.445 207.785 189.645 208.882M194.417 215.279C195.454 216.479 196.485 217.677 197.483 218.842M194.417 215.279C195.262 216.433 196.122 217.6 196.975 218.747M194.417 215.279C193.046 213.406 191.717 211.569 190.53 209.919M197.483 218.842C198.655 220.212 199.781 221.536 200.815 222.764M197.483 218.842C197.582 218.861 197.68 218.881 197.779 218.9M197.483 218.842C197.314 218.81 197.145 218.778 196.975 218.747M200.815 222.764C200.833 222.77 200.85 222.775 200.868 222.781M200.815 222.764C200.46 222.651 200.104 222.539 199.748 222.428M204.374 227.067C204.485 227.205 204.593 227.34 204.696 227.47M204.374 227.067C204.209 226.823 204.042 226.58 203.873 226.338M204.374 227.067C204.464 227.2 204.554 227.333 204.643 227.466M204.696 227.47C204.841 227.652 204.978 227.826 205.107 227.991M204.696 227.47C204.679 227.469 204.661 227.468 204.643 227.466M204.696 227.47C204.77 227.475 204.843 227.48 204.916 227.485M205.107 227.991C206.042 229.186 206.545 229.916 206.432 229.972C206.383 229.997 206.313 229.987 206.222 229.945M205.107 227.991C205.221 228.017 205.335 228.043 205.448 228.067M205.107 227.991C205.061 227.98 205.015 227.969 204.969 227.958M206.222 229.945C206.124 229.9 206.003 229.818 205.86 229.702M206.222 229.945C205.818 229.276 205.399 228.614 204.969 227.958M206.222 229.945C206.383 230.211 206.541 230.477 206.697 230.745M205.86 229.702C205.412 229.337 204.753 228.637 203.944 227.691M205.86 229.702C205.335 229.055 204.803 228.414 204.267 227.78M205.86 229.702C206.141 230.048 206.42 230.395 206.697 230.745M203.944 227.691C203.862 227.596 203.779 227.498 203.694 227.398M203.944 227.691C204.052 227.722 204.159 227.751 204.267 227.78M203.944 227.691C203.529 227.575 203.114 227.449 202.7 227.316M203.694 227.398C202.909 226.467 201.997 225.33 201.009 224.062M203.694 227.398C203.363 227.372 203.032 227.345 202.7 227.316M203.694 227.398C203.783 227.404 203.871 227.411 203.959 227.418M201.009 224.062C202.008 225.166 202.992 226.283 203.959 227.418M199.748 222.428C198.854 221.259 197.919 220.016 196.975 218.747M199.748 222.428C199.637 222.393 199.526 222.359 199.415 222.325M196.975 218.747C196.594 218.677 196.211 218.612 195.827 218.55M190.53 209.919C190.37 209.696 190.212 209.476 190.057 209.26M190.53 209.919C190.236 209.573 189.94 209.227 189.645 208.882M190.53 209.919C190.894 210.346 191.258 210.774 191.62 211.203C192.62 212.385 193.64 213.574 194.665 214.772M190.057 209.26C187.92 206.284 186.322 204.027 185.91 203.458C181.173 196.914 177.82 190.069 174.854 182.686M190.057 209.26C189.92 209.134 189.782 209.008 189.645 208.882M190.057 209.26C190.756 209.903 191.45 210.552 192.14 211.206M174.854 182.686C174.579 182.001 174.307 181.312 174.038 180.618C172.211 175.907 175.58 177.695 178.444 179.697M174.854 182.686C173.517 181.648 172.287 180.933 171.551 181.071C170.487 181.27 171.595 185.707 173.071 190.345M174.854 182.686C176.856 184.24 179.097 186.517 180.278 187.739M178.444 179.697C178.559 179.778 178.674 179.859 178.787 179.94C182.365 182.496 185.671 185.492 188.802 188.704M178.444 179.697C178.87 182.779 179.768 186.014 179.974 186.724C180.073 187.063 180.174 187.402 180.278 187.739M188.802 188.704C193.764 193.795 198.287 199.427 202.757 204.702C203.34 205.39 203.946 206.086 204.566 206.792M188.802 188.704C190.204 191.45 191.639 194.041 192.807 196.335C197.219 204.995 202.161 213.385 206.82 221.918M204.566 206.792C204.763 207.016 204.961 207.24 205.16 207.465M204.566 206.792C206.752 212.731 209.34 218.443 212.361 223.69M204.566 206.792C204.398 206.335 204.232 205.877 204.069 205.418M205.16 207.465C205.69 208.063 206.228 208.668 206.771 209.278M205.16 207.465C206.027 209.058 206.922 210.625 207.845 212.164C208.421 213.124 209.236 214.401 210.171 215.816M205.16 207.465C204.791 206.787 204.427
          206.104 204.069 205.418M206.771 209.278C208.538 211.263 210.356 213.314 212.078 215.43M206.771 209.278C207.961 211.342 209.177 213.583 210.171 215.816M212.078 215.43C213.167 218.022 214.232 220.616 215.288 223.197M215.288 223.197C213.606 220.893 211.722 218.163 210.171 215.816M215.288 223.197C215.295 223.213 215.301 223.229 215.308 223.245C215.433 223.551 216.8 226.522 217.834 229.102M210.171 215.816C211.394 218.565 212.279 221.303 212.361 223.69M200.892 198.932C198.305 193.296 196.058 187.461 194.168 181.583M200.892 198.932C196.42 190.64 191.163 181.408 183.71 175.728M200.892 198.932C201.568 200.184 202.226 201.416 202.87 202.61C203.046 202.935 203.242 203.284 203.456 203.656M194.168 181.583C190.631 177.443 183.246 169.221 183.197 170.103C183.096 171.923 183.296 173.812 183.71 175.728M194.168 181.583C195.125 182.702 195.8 183.522 195.973 183.784C197.136 185.54 198.25 187.33 199.322 189.147M195.573 166.071C200.432 170.661 204.612 181.31 206.602 185.141C208.26 188.335 209.789 191.566 211.233 194.824M195.573 166.071C195.367 160.447 199.998 166.451 201.74 168.973C203.786 171.936 205.76 174.998 207.652 178.135M211.233 194.824C215.068 203.481 218.3 212.331 221.753 221.21C221.76 221.228 221.767 221.247 221.774 221.266M211.233 194.824C211.864 197.073 212.562 199.31 213.329 201.536C215.543 207.96 218.187 214.263 221.3 220.305C221.442 220.58 221.601 220.904 221.774 221.266M211.233 194.824C209.789 189.681 208.696 184.478 207.936 179.215M221.774 221.266C223.282 225.141 223.245 224.996 222.301 222.367M221.774 221.266C221.937 221.604 222.113 221.974 222.301 222.367M222.301 222.367C219.888 215.647 211.549 192.699 207.936 179.215M222.301 222.367C223.64 225.167 225.577 229.083 227.576 230.368C228.75 231.123 227.942 227.566 227.745 226.185C227.028 221.168 225.341 216.28 223.618 211.542C219.513 200.252 214.13 188.921 207.824 178.421M207.936 179.215C207.838 178.847 207.743 178.487 207.652 178.135M207.936 179.215C207.898 178.95 207.861 178.686 207.824 178.421M207.652 178.135C207.298 176.766 207 175.511 206.771 174.4C206.508 173.122 203.215 155.468 206.745 158.608M207.652 178.135C207.709 178.23 207.767 178.326 207.824 178.421M206.745 158.608C206.808 158.664 206.873 158.727 206.941 158.797C208.005 159.894 209 161.1 209.935 162.389M206.745 158.608C206.493 159.788 206.606 162.181 206.658 164.111C206.788 168.928 207.173 173.698 207.824 178.421M206.745 158.608C207.029 157.28 207.777 157.488 209.598 161.623C209.71 161.878 209.822 162.133 209.935 162.389M209.935 162.389C215.494 170.053 218.939 180.663 222.261 188.929C223.993 193.238 225.651 197.656 227.132 202.136M209.935 162.389C216.695 177.775 223.941 195.399 227.517 212.887M227.132 202.136C227.366 202.846 227.596 203.557 227.822 204.27M227.132 202.136C227.225 205.765 227.359 209.401 227.517 212.887M227.132 202.136C227.1 200.9 227.072 199.665 227.05 198.436M227.822 204.27C229.221 208.692 230.433 213.167 231.363 217.648C231.784 219.673 232.639 228.738 230.911 221.21C229.635 215.649 228.637 209.979 227.822 204.27ZM227.822 204.27C227.545 202.329 227.289 200.384 227.05 198.436M230.422 164.878C232.804 174.484 233.878 184.494 234.432 194.435M230.422 164.878C233.024 163.034 235.924 175.328 236.451 180.845C236.471 181.052 236.491 181.259 236.51 181.467M234.432 194.435C234.533 196.257 234.617 198.077 234.689 199.892M234.432 194.435C234.8 190.023 235.413 185.602 236.51 181.467M234.689 199.892C235.25 196.047 235.999 192.236 236.994 188.493M233.818 207.382C233.31 213.086 233.121 218.821 233.059 224.489C233.029 227.281 232.913 230.208 233.016 231.313M236.51 181.467C237.19 178.902 238.056 176.447 239.165 174.174C240.633 171.164 241.338 172.07 241.545 175.084M236.51 181.467C236.723 183.799 236.884 186.142 236.994 188.493M241.545 175.084C241.548 175.125 241.551 175.166 241.553 175.208M241.545 175.084C239.738 179.024 238.433 183.37 237.356 187.176C237.232 187.614 237.111 188.053 236.994 188.493M241.545 175.084C241.585 174.997 241.625 174.91 241.665 174.824M241.553 175.208C239.346 182.831 237.977 190.793 237.151 198.78M241.553 175.208C241.59 175.08 241.628 174.952 241.665 174.824M236.134 214.763C235.673 218.907 235.062 223.024 234.303 227.089C234.029 228.556 233.81 229.631 233.634 230.378M237.151 198.78C237.206 195.345 237.154 191.911 236.994 188.493M252.2 177.93C251.98 179.512 251.713 181.127 251.402 182.762M252.2 177.93C251.803 178.55 251.41 179.171 251.022 179.793M252.2 177.93C253.519 175.87 254.888 173.815 256.295 171.743C258.56 168.405 260.207 163.806 263.592 161.361M251.402 182.762C250.844 185.689 250.144 188.68 249.311 191.658M251.402 182.762C251.363 182.274 251.316 181.786 251.263 181.297C251.249 181.164 251.166 180.607 251.022 179.793M251.402 182.762C251.481 183.75 251.531 184.734 251.555 185.717M249.311 191.658C248.629 194.093 247.858 196.519 247.002 198.894M249.311 191.658C248.47 194.048 247.697 196.461 247.002 198.894M249.311 191.658C250.013 189.661 250.764 187.68 251.555 185.717M247.002 198.894C245.483 204.217 244.34 209.633 243.688 215.104C243.671 215.245 243.655 215.383 243.639 215.519M263.592 161.361C263.738 161.256 263.887 161.155 264.04 161.058C266.251 159.651 265.562 166.493 264.706 171.861M263.592 161.361C260.706 165.989 258.354 170.969 257.256 173.156C255.203 177.24 253.281 181.435 251.555 185.717M263.592 161.361C266.784 156.245 270.63 151.56 274.159 151.56C276.208 151.56 276.365 154.865 275.576 159.51M264.706 171.861C264.223 174.89 263.686 177.449 263.587 177.792C261.214 186.028 258.133 194.74 254.295 202.959M264.706 171.861C262.496 176.295 260.766 180.923 259.291 184.124L259.021 184.71C256.383 190.432 251.499 201.03 248.011 209.155M264.706 171.861C267.198 166.86 270.299 162.105 274.329 159.927C274.762 159.693 275.18 159.559 275.576 159.51M254.295 202.959C251.769 208.368 248.917 213.563 245.723 218.27C245.164 219.093 244.752 219.631 244.469 219.918M254.295 202.959C256.083 200.919 257.87 198.877 259.626 196.806M254.295 202.959C252.032 205.54 249.765 208.116 247.552 210.739M244.469 219.918C243.158 221.246 244.616 217.198 247.119 211.253M244.469 219.918C244.87 219.044 245.369 217.69 245.949 215.895C246.502 214.184 247.041 212.466 247.552 210.739M244.469 219.918C243.374 222.299 242.996 221.11 243.639 215.519M247.119 211.253C247.404 210.576 247.702 209.876 248.011 209.155M247.119 211.253C247.263 211.081 247.407 210.91 247.552 210.739M247.119 211.253C245.94 212.658 244.777 214.078 243.639 215.519M248.011 209.155C250.19 201.499 251.749 193.691 251.555 185.717M248.011 209.155C247.861 209.684 247.708 210.212 247.552 210.739M275.576 159.51C277.57 159.267 278.99 161.204 278.965 163.432C278.901 168.892 275.776 174.436 272.617 179.285M275.576 159.51C274.676 164.802 272.549 171.833 270.592
          177.7M272.617 179.285C271.614 180.825 270.607 182.296 269.693 183.671C268.906 184.856 268.095 186.02 267.265 187.167M272.617 179.285C272.804 177.904 272.705 177 272.124 177C271.637 177 271.118 177.264 270.592 177.7M267.265 187.167C264.851 190.501 262.273 193.685 259.626 196.806M267.265 187.167C267.998 185.17 269.255 181.707 270.592 177.7M267.265 187.167C266.942 188.047 266.721 188.642 266.64 188.872C264.165 195.916 261.594 203.089 258.047 209.677C256.99 211.639 254.049 217.633 255.164 211.316C256.035 206.378 257.618 201.501 259.626 196.806M259.626 196.806C261.322 192.839 263.322 189.002 265.453 185.367C266.171 184.142 268.441 179.483 270.592 177.7M233.634 230.378C233.431 230.691 233.225 231.004 233.016 231.313M233.634 230.378C233.26 231.971 233.087 232.072 233.016 231.313M233.016 231.313C231.995 232.821 230.905 234.251 229.763 235.393M229.763 235.393C229.568 235.588 229.372 235.774 229.174 235.951M229.763 235.393C229.774 234.874 229.78 234.257 229.78 233.534C229.78 226.772 228.939 219.84 227.517 212.887M229.763 235.393C229.7 238.222 229.473 238.099 229.174 235.951M229.174 235.951C228.68 232.4 227.99 223.315 227.517 212.887M223.972 238.468C223.459 237.826 222.895 237.269 222.279 236.827M214.819 238.232C213.763 238.029 212.694 237.78 211.619 237.494M214.819 238.232C214.026 237.38 213.157 236.443 212.261 235.475M211.619 237.494C211.499 237.462 211.378 237.43 211.257 237.397M211.619 237.494C211.477 237.282 211.348 237.09 211.237 236.926C210.853 236.358 210.465 235.796 210.071 235.241M211.619 237.494C211.824 237.799 212.056 238.147 212.302 238.517M211.257 237.397C210.707 237.246 210.156 237.087 209.605 236.92M211.257 237.397C211.617 237.767 211.966 238.141 212.302 238.517M211.257 237.397C210.551 236.67 209.804 235.955 209.031 235.251M209.605 236.92C209.522 236.494 209.337 235.945 209.031 235.251M207.104 236.113C205.708 235.636 204.322 235.123 202.967 234.597M207.104 236.113C207.006 235.805 206.816 235.389 206.553 234.889M207.104 236.113C207.214 236.459 207.207 236.666 207.054 236.7C206.679 236.782 206.209 236.73 205.679 236.583M202.967 234.597C202.911 234.576 202.856 234.554 202.8 234.532M202.967 234.597C203.819 235.263 204.769 235.974 205.679 236.583M202.967 234.597C202.943 234.578 202.919 234.56 202.896 234.541M202.8 234.532C201.671 234.093 200.563 233.645 199.487 233.202M202.8 234.532C202.302 234.486 201.803 234.439 201.304 234.392M202.8 234.532C202.832 234.535 202.864 234.538 202.896 234.541M199.487 233.202C197.817 232.515 196.224 231.84 194.748 231.229M199.487 233.202C200.031 233.569 200.652 233.982 201.304 234.392M199.487 233.202C198.733 232.693 198.126 232.272 197.782 232.064C195.039 230.404 192.325 228.695 189.622 226.967M194.748 231.229C193.026 229.824 191.313 228.409 189.622 226.967M185.132 227.584C178.966 225.249 172.842 222.734 166.704 220.277M185.132 227.584C187.648 229.642 190.264 231.62 192.924 233.577M185.132 227.584C183.561 226.298 182.028 224.981 180.55 223.617M166.704 220.277C170.608 221.292 174.537 222.214 178.448 223.132C179.147 223.296 179.847 223.458 180.55 223.617M160.936 217.993C160.862 217.964 160.787 217.935 160.712 217.906M160.936 217.993C160.89 217.995 160.844 217.996 160.798 217.997M160.712 217.906C160.023 217.637 159.333 217.371 158.644 217.106M160.712 217.906C160.429 217.603 160.15 217.299 159.875 216.992M160.712 217.906C160.74 217.936 160.769 217.967 160.798 217.997M158.644 217.106C154.88 215.663 151.103 214.28 147.298 213.012C147.061 212.933 143.077 211.961 144.471 212.616C148.406 214.468 152.465 216.01 156.595 217.354M158.644 217.106C159.057 217.064 159.468 217.026 159.875 216.992M158.644 217.106C157.964 217.176 157.278 217.258 156.595 217.354M156.595 217.354C157.343 217.597 158.094 217.834 158.846 218.065M156.595 217.354C154.698 217.62 152.821 217.992 151.137 218.512M158.846 218.065C159.78 218.352 160.718 218.629 161.658 218.9M158.846 218.065C159.496 218.04 160.147 218.018 160.798 217.997M158.846 218.065C156.261 218.164 153.685 218.304 151.137 218.512M161.658 218.9C161.368 218.601 161.081 218.3 160.798 217.997M161.658 218.9C166.086 223.458 171.257 227.569 176.523 231.372M186.353 224.868C186.718 224.941 187.084 225.014 187.449 225.086M186.353 224.868C187.442 225.569 188.531 226.27 189.622 226.967M187.449 225.086C189.455 225.48 191.47 225.844 193.491 226.167M187.449 225.086C188.169 225.719 188.893 226.346 189.622 226.967M187.449 225.086C185.851 223.679 184.278 222.241 182.744 220.757C181.939 219.978 180.822 218.941 179.549 217.717M193.491 226.167C195.593 228.338 197.847 230.415 200.27 232.403C200.643 232.709 201.661 233.573 202.896 234.541M193.491 226.167C192.044 224.672 190.67 223.132 189.362 221.547M199.318 226.974C200.101 227.064 200.886 227.148 201.67 227.223M199.318 226.974C200.85 228.37 202.596 229.799 204.377 231.269M199.318 226.974C198.777 226.481 198.262 225.992 197.782 225.506C197.745 225.468 197.708 225.43 197.67 225.393M201.67 227.223C202.013 227.255 202.357 227.287 202.7 227.316M201.67 227.223C201.593 227.111 201.517 227 201.44 226.889M201.67 227.223C202.61 228.59 203.548 229.985 204.377 231.269M202.7 227.316C202.276 227.18 201.855 227.036 201.44 226.889M203.959 227.418C204.187 227.435 204.415 227.451 204.643 227.466M203.959 227.418C204.062 227.538 204.165 227.659 204.267 227.78M204.643 227.466C204.752 227.63 204.861 227.794 204.969 227.958M204.916 227.485C205.849 227.546 206.782 227.594 207.714 227.628M204.916 227.485C205.086 227.67 205.263 227.865 205.448 228.067M204.916 227.485C204.519 227.049 204.167 226.662 203.873 226.338M207.714 227.628C207.984 227.638 208.254 227.647 208.524 227.654C208.895 227.665 209.279 227.659 209.652 227.632M207.714 227.628C207.943 227.895 208.172 228.162 208.401 228.43M209.652 227.632C209.724 227.627 209.795 227.621 209.866 227.614M209.652 227.632C209.76 227.837 209.867 228.042 209.974 228.248M209.866 227.614C209.967 227.807 210.067 227.999 210.167 228.192M211.77 226.992C211.855 226.911 211.922 226.821 211.967 226.722M211.77 226.992C211.824 226.901 211.874 226.805 211.919 226.703M211.967 226.722C212.013 226.621 212.036 226.511 212.035 226.391M211.967 226.722C212.504 226.926 213.583 227.333 214.933 227.879M211.967 226.722C211.951 226.715 211.934 226.709 211.919 226.703M212.035 226.391C212.029 225.904 211.609 225.248 210.559 224.375C209.425 223.433 208.17 222.62 206.82 221.918M212.035 226.391C212.295 225.563 212.394 224.655 212.361 223.69M212.035 226.391C212.033 226.398 212.031 226.404 212.029 226.411C211.996 226.513 211.96 226.61 211.919 226.703M206.82 221.918C206.677 221.843 206.534 221.77 206.389 221.699M206.82 221.918C207.471 223.109 208.116 224.303 208.753 225.502M206.389 221.699C204.538 220.781 202.52 220.064 200.406 219.506M206.389
          221.699C203.681 216.989 200.758 212.429 197.5 207.924C192.508 201.023 187.144 194.497 181.048 188.533C180.932 188.42 180.661 188.135 180.278 187.739M206.389 221.699C207.091 222.919 207.778 224.149 208.453 225.391M200.406 219.506C199.69 219.317 198.963 219.146 198.228 218.992M200.406 219.506C197.725 216.663 194.969 213.889 192.14 211.206M200.406 219.506C201.799 220.984 203.172 222.48 204.525 223.992M198.228 218.992C198.078 218.961 197.929 218.93 197.779 218.9M198.228 218.992C197.049 217.567 195.854 216.163 194.665 214.772M198.228 218.992C199.302 220.292 200.362 221.609 201.39 222.948M197.779 218.9C198.798 220.212 199.83 221.505 200.868 222.781M197.779 218.9C196.724 217.544 195.684 216.168 194.665 214.772M195.827 218.55C195.649 218.521 195.47 218.494 195.292 218.467M195.827 218.55C194.679 217.366 193.518 216.186 192.346 215.002M195.827 218.55C197.039 219.801 198.236 221.056 199.415 222.325M195.292 218.467C193.728 218.231 192.144 218.058 190.562 217.932M195.292 218.467C194.323 217.327 193.342 216.169 192.346 215.002M190.562 217.932C186.02 212.981 181.663 207.852 177.57 202.527M186.382 217.699C186.74 218.191 187.103 218.679 187.472 219.164M182.619 217.629C181.545 217.625 180.494 217.632 179.474 217.645M182.619 217.629C183.047 217.905 183.477 218.176 183.91 218.443M179.474 217.645C179.343 217.647 179.213 217.648 179.083 217.65M179.474 217.645C179.499 217.669 179.524 217.693 179.549 217.717M179.083 217.65C179.238 217.672 179.394 217.694 179.549 217.717M175.407 217.721C175.211 217.725 175.016 217.728 174.82 217.732M175.407 217.721C175.092 217.515 174.777 217.31 174.461 217.106M174.82 217.732C174.637 217.519 174.454 217.304 174.273 217.089M151.137 218.512C148.222 219.412 145.887 220.751 145.037 222.736C144.364 224.306 144.805 226.032 145.905 227.767M157.869 242.189C160.375 242.767 162.935 243.231 165.518 243.611M157.869 242.189C161.896 244.679 166.61 245.987 171.68 246.528M165.518 243.611C167.313 243.874 169.119 244.097 170.927 244.289M165.518 243.611C167.55 244.627 169.605 245.598 171.68 246.528M170.927 244.289C177.815 245.021 184.723 245.304 191.095 245.68M170.927 244.289C173.295 245.243 175.699 246.097 178.135 246.835M191.095 245.68C191.393 245.698 191.691 245.715 191.988 245.733M191.095 245.68C191.223 245.72 191.352 245.761 191.48 245.801M191.988 245.733C192.237 245.749 192.486 245.764 192.734 245.78M191.988 245.733C191.819 245.756 191.649 245.779 191.48 245.801M191.988 245.733C192.126 245.715 192.264 245.696 192.402 245.677M192.734 245.78C193.138 245.805 193.539 245.831 193.938 245.858C195.233 245.945 197.176 246.179 199.211 246.398M192.734 245.78C192.623 245.746 192.513 245.711 192.402 245.677M192.734 245.78C195.008 246.482 197.294 247.148 199.591 247.78C201.022 248.174 202.791 248.737 204.67 249.24M199.211 246.398C201.562 246.651 204.038 246.884 205.784 246.849M199.211 246.398C198.417 245.948 197.628 245.488 196.845 245.018M199.211 246.398C200.999 247.41 202.818 248.366 204.67 249.24M205.784 246.849C204.287 245.976 202.776 245.126 201.254 244.3M205.198 243.639C205.569 243.577 205.938 243.515 206.306 243.455M193.494 240.329C191.758 240.04 190.03 239.793 188.394 239.56M193.494 240.329C193.642 240.401 193.79 240.472 193.938 240.544C196.398 241.739 198.841 242.99 201.254 244.3M188.394 239.56C188.433 239.587 188.472 239.613 188.511 239.639C191.219 241.478 193.993 243.307 196.845 245.018M164.323 234.423C162.651 234.009 160.98 233.588 159.31 233.16M164.323 234.423C162.936 233.534 161.601 232.592 160.334 231.603M164.323 234.423C165.39 235.107 166.487 235.76 167.607 236.38M159.31 233.16C157.472 232.689 155.635 232.211 153.799 231.725C151.677 231.163 149.519 230.387 147.344 229.66M159.31 233.16C158.805 232.763 158.734 232.358 159.396 231.951C159.638 231.802 159.955 231.688 160.334 231.603M159.31 233.16C160.633 234.202 164.94 235.189 166.802 236.021C167.07 236.141 167.339 236.261 167.607 236.38M147.344 229.66C145.776 229.135 144.199 228.636 142.62 228.26M147.344 229.66C146.792 229.032 146.305 228.399 145.905 227.767M147.344 229.66C148.636 231.129 150.286 232.567 152.008 233.885M142.62 228.26C141.598 228.016 140.575 227.824 139.553 227.711C132.003 226.872 136.964 228.991 146.462 232.108M142.62 228.26C141.526 229.052 144.142 230.667 146.462 232.108M142.62 228.26C143.047 227.951 144.037 227.767 145.828 227.767C145.854 227.767 145.879 227.767 145.905 227.767M146.462 232.108C148.178 232.672 150.043 233.268 152.008 233.885M146.462 232.108C147.213 232.575 147.932 233.024 148.485 233.421C149.605 234.225 150.74 235.007 151.887 235.768M152.008 233.885C152.956 234.182 153.928 234.485 154.918 234.791M152.008 233.885C152.458 234.229 152.912 234.564 153.367 234.89M154.918 234.791C154.354 234.783 153.824 234.811 153.367 234.89M191.48 245.801C195.346 247.022 199.189 248.312 203.032 249.598M191.48 245.801C187.007 246.395 182.497 246.816 178.135 246.835M203.032 249.598C202.092 249.724 201.193 249.782 200.496 249.816C192.872 250.181 185.368 249.025 178.135 246.835M203.032 249.598C203.605 249.521 204.194 249.419 204.761 249.282M214.171 250.133C212.076 248.099 209.423 245.936 209.263 245.805L209.259 245.802C208.839 245.459 208.417 245.119 207.993 244.781M214.171 250.133C213.365 250.328 212.485 250.404 211.563 250.393M214.171 250.133C214.288 250.105 214.403 250.075 214.516 250.042C216.348 249.507 212.804 246.535 211.407 245.236C210.603 244.489 209.789 243.752 208.968 243.024M207.993 244.781C207.433 244.335 206.871 243.893 206.306 243.455M207.993 244.781C208.674 246.204 208.408 247.221 207.64 247.95M207.993 244.781C207.865 244.514 207.704 244.233 207.506 243.936C207.368 243.729 207.225 243.527 207.075 243.328M206.306 243.455C206.563 243.412 206.82 243.37 207.075 243.328M197.426 236.858C195.919 235.764 194.415 234.674 192.924 233.577M174.273 217.089C174.211 217.014 174.148 216.939 174.086 216.864M174.273 217.089C174.336 217.094 174.398 217.1 174.461 217.106M174.086 216.864C174.211 216.944 174.336 217.025
          174.461 217.106M166.296 204.205C165.44 202.187 164.699 200.059 164.088 197.805C161.978 190.014 166.2 191.405 171.808 195.626M166.296 204.205C168.14 206.119 170.075 207.959 172.089 209.714M166.296 204.205C164.299 202.134 162.409 199.976 160.64 197.748C152.546 187.556 162.582 189.585 169.402 193.621C170.447 194.239 171.473 194.902 172.48 195.602M171.808 195.626C172.31 196.003 172.823 196.404 173.343 196.822M171.808 195.626C169.383 194.702 167.506 194.866 167.028 197.183C166.246 200.974 168.765 205.529 172.089 209.714M171.808 195.626C172.127 195.747 172.456 195.888 172.792 196.045M173.343 196.822C174.27 197.567 175.22 198.369 176.174 199.203M173.343 196.822C174.717 198.749 176.127 200.65 177.57 202.527M173.343 196.822C173.159 196.564 172.975 196.304 172.792 196.045M176.174 199.203C182.317 204.571 188.621 211.25 189.755 212.39L189.96 212.597C190.76 213.402 191.555 214.203 192.346 215.002M176.174 199.203C176.537 200.162 176.791 200.804 176.865 200.971C177.097 201.493 177.331 202.012 177.57 202.527M176.174 199.203C176.042 198.855 175.896 198.465 175.739 198.04M192.346 215.002C187.286 209.072 181.842 202.93 175.739 198.04M204.267 227.78C204.502 227.843 204.736 227.902 204.969 227.958M206.697 230.745C207.853 232.203 208.979 233.699 210.071 235.241M206.697 230.745C207.506 232.134 208.252 233.552 208.919 235.004C208.939 235.046 208.958 235.088 208.976 235.129M210.071 235.241C209.706 235.203 209.342 235.166 208.976 235.129M210.071 235.241C210.802 235.317 211.532 235.395 212.261 235.475M214.79 242.203C215.419 243.103 215.738 243.499 215.308 242.692C215.216 242.52 215.12 242.347 215.02 242.176M214.79 242.203C212.936 242.422 210.988 242.706 208.968 243.024M214.79 242.203C214.867 242.194 214.943 242.185 215.02 242.176M209.031 235.251C208.983 235.207 208.935 235.164 208.887 235.12M209.031 235.251C209.013 235.211 208.995 235.17 208.976 235.129M208.887 235.12C207.432 233.802 205.891 232.52 204.377 231.269M208.887 235.12C208.917 235.123 208.947 235.126 208.976 235.129M197.67 225.393C196.07 223.772 194.486 222.131 192.922 220.471M197.67 225.393C198.746 225.856 200.054 226.395 201.44 226.889M192.922 220.471C194.59 220.906 196.248 221.372 197.894 221.863M192.922 220.471C191.114 219.998 189.296 219.56 187.472 219.164M172.792 196.045C172.688 195.897 172.584 195.75 172.48 195.602M172.792 196.045C173.127 196.201 173.469 196.374 173.817 196.56M172.48 195.602C172.929 195.914 173.375 196.234 173.817 196.56M173.071 190.345C178.695 196.431 184.253 202.589 189.645 208.882M194.665 214.772C193.807 213.597 192.963 212.409 192.14 211.206M201.39 222.948C202.441 223.287 203.487 223.636 204.525 223.992M201.39 222.948C201.216 222.892 201.042 222.836 200.868 222.781M205.679 236.583C204.399 236.227 202.771 235.316 201.304 234.392M202.896 234.541C204.115 234.656 205.334 234.771 206.553 234.889M189.362 221.547C187.513 220.583 185.693 219.546 183.91 218.443M175.739 198.04C175.684 197.892 175.627 197.739 175.57 197.583M175.739 198.04C175.105 197.533 174.465 197.039 173.817 196.56M175.57 197.583C174.976 197.211 174.389 196.867 173.817 196.56M180.278 187.739C182.854 196.089 187.137 203.902 192.14 211.206M208.453 225.391C208.553 225.428 208.653 225.464 208.753 225.502M208.453 225.391C207.157 224.913 205.847 224.446 204.525 223.992M209.974 228.248C210.515 229.285 211.049 230.33 211.577 231.386C211.672 231.578 212.314 232.803 212.828 233.76M209.974 228.248C210.04 228.231 210.104 228.212 210.167 228.192M209.974 228.248C209.503 228.373 208.973 228.429 208.401 228.43M212.828 233.76C213.4 234.822 213.816 235.552 213.154 234.162M212.828 233.76C211.379 231.969 209.903 230.191 208.401 228.43M212.828 233.76C212.92 233.873 213.012 233.986 213.103 234.099C213.12 234.12 213.137 234.141 213.154 234.162M213.154 234.162C213.09 234.029 213.017 233.877 212.933 233.703C212.038 231.853 211.113 230.017 210.167 228.192M213.154 234.162C213.63 234.753 214.036 235.261 214.392 235.715M208.753 225.502C209.76 225.874 210.758 226.253 211.746 226.637C211.793 226.655 211.851 226.677 211.919 226.703M199.322 189.147C200.462 194.019 201.835 198.895 203.456 203.656M217.834 229.102C216.803 228.647 215.811 228.234 214.933 227.879M214.933 227.879C214.043 226.521 213.186 225.123 212.361 223.69M227.794 247.614C228.052 248.837 228.221 249.982 228.31 250.946C229.975 268.889 189.552 253.659 182.405 250.946C178.792 249.574 175.208 248.11 171.68 246.528M220.055 236.492C220.347 236.111 220.751 235.988 221.3 236.247C221.64 236.408 221.967 236.603 222.279 236.827M220.055 236.492C220.691 236.602 221.47 236.727 222.279 236.827M171.68 246.528C173.778 246.752 175.938 246.844 178.135 246.835M151.887 235.768C152.053 235.29 152.609 235.02 153.367 234.89M145.905 227.767C149.628 227.771 153.324 228.023 157.004 228.423M157.004 228.423C160.219 228.772 163.422 229.234 166.621 229.739M157.004 228.423C156.178 226.923 159.083 227.54 161.884 228.333C163.467 228.781 165.047 229.25 166.621 229.739M157.004 228.423C157.304 228.968 158.096 229.793 159.566 230.99C159.819 231.196 160.075 231.4 160.334 231.603M166.621 229.739C169.924 230.261 173.222 230.83 176.523 231.372M166.621 229.739C169.735 230.707 172.828 231.754 175.893 232.878M176.523 231.372C177.391 231.998 178.261 232.616 179.13 233.226M212.261 235.475C212.972 235.552 213.682 235.632 214.392 235.715M212.261 235.475C209.873 232.892 207.294 230.087 205.448
           228.067M197.894 221.863C198.878 223.228 200.152 225.022 201.44 226.889M183.91 218.443C182.457 218.172 181.002 217.929 179.549 217.717M204.761 249.282C204.773 249.279 204.785 249.276 204.797 249.273M204.761 249.282C204.73 249.268 204.7 249.254 204.67 249.24M204.797 249.273C204.755 249.262 204.712 249.251 204.67 249.24M207.64 247.95C208.961 248.745 210.269 249.559 211.563 250.393M207.075 243.328C207.713 243.224 208.344 243.122 208.968 243.024M179.13 233.226C178 233.102 176.915 232.989 175.893 232.878M179.13 233.226C180.11 233.914 181.09 234.592 182.065 235.261M175.893 232.878C175.123 232.795 174.39 232.713 173.699 232.629C172.062 232.431 163.742 230.835 160.334 231.603M175.893 232.878C177.963 233.638 180.021 234.432 182.065 235.261M178.504 240.87C179.714 241.332 180.928 241.785 182.146 242.227M178.504 240.87C182.025 241.912 185.559 242.909 189.133 243.766C190.614 244.122 183.643 242.612 182.631 242.353C182.47 242.312 182.308 242.27 182.146 242.227M178.504 240.87C177.176 240.476 175.849 240.076 174.523 239.675M182.146 242.227C185.536 243.457 188.955 244.607 192.402 245.677M182.146 242.227C179.61 241.555 177.046 240.698 174.523 239.675M192.402 245.677C193.891 245.472 195.374 245.249 196.845 245.018M208.401 228.43C207.499 228.431 206.493 228.294 205.448 228.067M196.845 245.018C198.33 244.785 199.801 244.542 201.254 244.3"
      stroke="white" stroke-width="2" stroke-linecap="round"/>
</svg>
